<svg xmlns="http://www.w3.org/2000/svg" width="350" height="75" viewBox="0 0 350 75">
  <defs>
    <style>
      .cls-1 {
        fill: #fff;
        fill-rule: evenodd;
      }
    </style>
  </defs>
  <path id="Mahazona" class="cls-1" d="M55.633,63.267h9.846V12.833h-9.7L41.608,41.946,27.371,12.833h-9.7V63.267h9.846v-30.1l9.208,18.913q1.982,4.038,4.923,4.038t4.923-3.825l9.067-19.125v30.1ZM102.95,22.537l-9.208.567h-9.7a14.325,14.325,0,0,0-8.287,2.2,8.474,8.474,0,0,0-2.408,2.656,17.125,17.125,0,0,0-1.523,3.223A19.511,19.511,0,0,0,71,35.04q-0.284,2.3-.354,4.038T70.579,44.46a44.918,44.918,0,0,0,.531,7.013,22.029,22.029,0,0,0,1.948,6.269q2.832,5.95,11.05,5.95l9.846-5.312,2.833,4.887h6.163V22.537ZM86.729,53.987q-4.038,0-5.49-2.408t-1.452-8.323q0-5.913,1.523-8.89t5.419-2.975h7.012V50.375Zm57.446-18.133q0-6.375-2.585-9.917T132.771,22.4l-11.688,5.242V10h-9.208V63.267h9.208v-28.4l8.784-3.471q5.1,0,5.1,6.517V63.267h9.208V35.854Zm36.9-13.317-9.208.567h-9.7a14.327,14.327,0,0,0-8.288,2.2,8.479,8.479,0,0,0-2.408,2.656,17.113,17.113,0,0,0-1.523,3.223,19.516,19.516,0,0,0-.815,3.86q-0.284,2.3-.354,4.038t-0.071,5.383a44.808,44.808,0,0,0,.532,7.013,22.025,22.025,0,0,0,1.947,6.269q2.833,5.95,11.051,5.95l9.845-5.312,2.834,4.887h6.162V22.537Zm-16.221,31.45q-4.036,0-5.489-2.408t-1.452-8.323q0-5.913,1.523-8.89t5.418-2.975h7.013V50.375Zm51.78,1.346H197.229l20.117-25.5V22.821H189.438v7.933H206.3l-16.858,20.9a9.684,9.684,0,0,0-2.338,5.808,5.125,5.125,0,0,0,1.948,4.285,8.85,8.85,0,0,0,5.56,1.523h22.03V55.333Zm28.9-3.117q-1.56,3.755-6.588,3.754-7.792,0-7.792-11.262V41.025q0-10.482,7.792-10.483,4.817,0,6.34,2.762t1.523,8v3.683a18.315,18.315,0,0,1-1.275,7.225h0Zm6.693-24.756q-3.79-5.206-13.529-5.206T225.279,28.2q-3.33,5.313-3.329,14.662,0,9.987,3.329,15.442,3.541,5.95,13.671,5.95,7.932,0,12.113-3.825,4.956-4.463,4.958-17.567Q256.021,32.667,252.231,27.46Zm42.536,8.677q0-6.729-3.507-10.235a11.292,11.292,0,0,0-8.252-3.506l-11.333,5.242-2.125-4.817h-6.871V63.267h9.209v-28.4l8.287-3.471a5.723,5.723,0,0,1,3.967,1.275q1.416,1.275,1.416,4.746V63.267h9.209V36.137Zm37.046-13.6L322.6,23.1h-9.7a14.324,14.324,0,0,0-8.287,2.2,8.47,8.47,0,0,0-2.409,2.656,17.113,17.113,0,0,0-1.523,3.223,19.522,19.522,0,0,0-.814,3.86q-0.285,2.3-.354,4.038t-0.071,5.383a44.931,44.931,0,0,0,.531,7.013,22.026,22.026,0,0,0,1.948,6.269q2.832,5.95,11.05,5.95l9.846-5.312,2.833,4.887h6.163V22.537Zm-16.221,31.45q-4.038,0-5.49-2.408t-1.452-8.323q0-5.913,1.523-8.89t5.419-2.975H322.6V50.375Z"/>
</svg>
