<svg xmlns="http://www.w3.org/2000/svg" width="400" height="100" viewBox="0 0 400 100">
  <defs>
    <style>
      .cls-1 {
        fill: #fff;
        fill-rule: evenodd;
      }
    </style>
  </defs>
  <path id="Mahazona" class="cls-1" d="M101.683,70.867h8.109V29.333H101.8L90.133,53.308,78.408,29.333H70.417V70.867h8.108V46.075L86.108,61.65q1.632,3.325,4.054,3.325t4.054-3.15l7.466-15.75V70.867ZM140.65,37.325l-7.583.467h-7.992A11.8,11.8,0,0,0,118.25,39.6a6.982,6.982,0,0,0-1.983,2.188,14.072,14.072,0,0,0-1.254,2.654,16.053,16.053,0,0,0-.671,3.179q-0.234,1.9-.292,3.325t-0.058,4.433a37.067,37.067,0,0,0,.437,5.775,18.161,18.161,0,0,0,1.6,5.162q2.332,4.9,9.1,4.9l8.109-4.375,2.333,4.025h5.075V37.325Zm-13.358,25.9q-3.326,0-4.521-1.983t-1.2-6.854q0-4.87,1.254-7.321a4.572,4.572,0,0,1,4.463-2.45h5.775V60.25ZM174.6,48.292q0-5.25-2.129-8.167t-7.263-2.917l-9.625,4.317V27H148V70.867h7.583V47.475l7.234-2.858q4.2,0,4.2,5.367V70.867H174.6V48.292Zm30.392-10.967-7.584.467h-7.991a11.8,11.8,0,0,0-6.825,1.808,6.973,6.973,0,0,0-1.984,2.188,14.135,14.135,0,0,0-1.254,2.654,16.125,16.125,0,0,0-.671,3.179q-0.234,1.9-.291,3.325t-0.059,4.433a36.943,36.943,0,0,0,.438,5.775,18.161,18.161,0,0,0,1.6,5.162q2.333,4.9,9.1,4.9l8.108-4.375,2.334,4.025h5.075V37.325Zm-13.359,25.9q-3.324,0-4.52-1.983t-1.2-6.854q0-4.87,1.254-7.321a4.572,4.572,0,0,1,4.462-2.45h5.775V60.25Zm42.642,1.108H218.292l16.566-21V37.558H211.875v6.533h13.883L211.875,61.3a7.98,7.98,0,0,0-1.925,4.783,4.22,4.22,0,0,0,1.6,3.529,7.288,7.288,0,0,0,4.579,1.254h18.142V64.333Zm23.8-2.567q-1.284,3.093-5.425,3.092-6.417,0-6.417-9.275V52.55q0-8.632,6.417-8.633,3.966,0,5.221,2.275a13.919,13.919,0,0,1,1.254,6.592v3.033a15.083,15.083,0,0,1-1.05,5.95h0Zm5.513-20.387q-3.122-4.287-11.142-4.288t-11.054,4.9q-2.744,4.375-2.742,12.075,0,8.225,2.742,12.717,2.916,4.9,11.258,4.9,6.532,0,9.975-3.15,4.083-3.675,4.083-14.467Q266.708,45.667,263.588,41.379Zm35.029,7.146q0-5.541-2.888-8.429a9.3,9.3,0,0,0-6.8-2.887L279.6,41.525l-1.75-3.967h-5.658V70.867h7.583V47.475l6.825-2.858a4.715,4.715,0,0,1,3.267,1.05q1.166,1.05,1.166,3.908V70.867h7.584V48.525Zm30.508-11.2-7.583.467H313.55a11.8,11.8,0,0,0-6.825,1.808,6.982,6.982,0,0,0-1.983,2.188,14.142,14.142,0,0,0-1.255,2.654,16.131,16.131,0,0,0-.67,3.179q-0.234,1.9-.292,3.325t-0.058,4.433a36.945,36.945,0,0,0,.437,5.775,18.161,18.161,0,0,0,1.6,5.162q2.333,4.9,9.1,4.9l8.109-4.375,2.333,4.025h5.075V37.325Zm-13.358,25.9q-3.325,0-4.521-1.983t-1.2-6.854q0-4.87,1.254-7.321a4.572,4.572,0,0,1,4.463-2.45h5.775V60.25Z"/>
</svg>
